<svg width="590" height="45" viewBox="0 0 590 45" xmlns="http://www.w3.org/2000/svg"><g fill="#fff" stroke="#fff"><path d="M19.648 5.276h-5.264V6.62h2.096V17.1h1.072V6.62h2.096zM27.168 5.276H26.08v4.752h-4.192V5.276H20.8V17.1h1.088v-5.696h4.192V17.1h1.088zM33.872 15.756h-3.616v-4.48h3.52V9.932h-3.52V6.62h3.616V5.276h-4.704V17.1h4.704zM46.544 4.764l-3.024 9.344-3.024-9.344L38.72 17.1h1.088l1.056-7.904 2.656 8.192 2.64-8.16L47.2 17.1h1.12zM50.752 5.276h-1.088V17.1h1.088zM60.816 11.116h-3.488v1.36h2.304c0 .864-.288 1.648-.88 2.368-.624.768-1.344 1.152-2.176 1.152-.48 0-.976-.208-1.488-.608-.592-.464-1.04-1.12-1.36-1.968a6.63 6.63 0 01-.432-2.384c0-1.104.288-2.112.864-3.056.672-1.072 1.52-1.6 2.56-1.6 1.168 0 2.128.64 2.848 1.92l.8-.992c-.496-.784-1.008-1.36-1.52-1.696-.592-.384-1.328-.576-2.192-.576-1.328 0-2.416.704-3.296 2.128-.768 1.232-1.152 2.544-1.152 3.952 0 1.536.368 2.912 1.12 4.128.88 1.424 2.032 2.128 3.472 2.128.464 0 .96-.144 1.488-.448.864-.496 1.52-1.264 1.968-2.288.368-.88.56-1.888.56-2.992zM68.56 5.276h-1.088v4.752H63.28V5.276h-1.088V17.1h1.088v-5.696h4.192V17.1h1.088zM75.008 5.276h-5.264V6.62h2.096V17.1h1.072V6.62h2.096zM77.296 5.276h-1.088V17.1h1.088zM84.064 15.756h-3.616v-4.48h3.52V9.932h-3.52V6.62h3.616V5.276H79.36V17.1h4.704zM90.864 13.692c0-1.2-.352-2.144-1.04-2.8-.08-.064-.72-.48-1.952-1.232-.688-.432-1.04-.992-1.04-1.648 0-.4.144-.784.432-1.12.288-.336.624-.512 1.024-.512.656 0 1.136.384 1.44 1.136l.848-.704c-.48-1.2-1.232-1.792-2.24-1.792-.752 0-1.392.304-1.888.928a3.138 3.138 0 00-.704 2.032c0 1.056.352 1.888 1.04 2.496.656.4 1.296.816 1.952 1.232.688.464 1.04 1.072 1.04 1.792 0 .624-.112 1.152-.336 1.6-.288.576-.72.864-1.28.864-.528 0-.96-.24-1.28-.736a2.672 2.672 0 01-.432-1.504l-1.088.32c.096.864.352 1.6.768 2.208.512.736 1.168 1.104 1.968 1.104.352 0 .704-.112 1.072-.32 1.136-.672 1.696-1.792 1.696-3.344zM96.928 5.276h-5.264V6.62h2.096V17.1h1.072V6.62h2.096zM106.72 8.716c0-1.904-.624-2.992-1.872-3.28a6.563 6.563 0 00-1.536-.16h-1.376l-.032 11.824h1.12v-4.96c.896 0 1.504-.064 1.808-.176 1.264-.48 1.888-1.568 1.888-3.248zm-1.024-.128c0 1.504-.72 2.256-2.16 2.256-.048 0-.144 0-.256-.016h-.256v-4.24h.48c.656 0 1.168.16 1.568.496.416.368.624.864.624 1.504zM110.768 11.948c.688-.128 1.232-.56 1.616-1.28.32-.624.48-1.312.48-2.08 0-1.12-.336-2.016-1.024-2.672-.448-.432-1.184-.64-2.192-.64h-1.568V17.1h1.088v-4.992h.448l2.608 4.992h1.312zm1.072-3.264c0 .864-.24 1.456-.72 1.792-.4.272-1.056.416-1.952.416V6.588h.352c1.552 0 2.32.704 2.32 2.096zM123.376 11.18c0-1.488-.384-2.848-1.152-4.064-.88-1.392-2.032-2.08-3.44-2.08s-2.56.688-3.44 2.08c-.768 1.216-1.152 2.576-1.152 4.064s.384 2.848 1.152 4.064c.88 1.408 2.032 2.112 3.44 2.112s2.56-.704 3.44-2.112c.768-1.216 1.152-2.576 1.152-4.064zm-1.088 0a5.93 5.93 0 01-.864 3.136c-.688 1.104-1.568 1.648-2.64 1.648-1.088 0-1.968-.544-2.64-1.632-.576-.944-.864-1.984-.864-3.152 0-1.2.288-2.256.848-3.168.656-1.088 1.552-1.632 2.656-1.632s1.984.544 2.64 1.648c.576.944.864 1.984.864 3.152zM129.616 8.716c0-1.904-.624-2.992-1.872-3.28a6.563 6.563 0 00-1.536-.16h-1.376L124.8 17.1h1.12v-4.96c.896 0 1.504-.064 1.808-.176 1.264-.48 1.888-1.568 1.888-3.248zm-1.024-.128c0 1.504-.72 2.256-2.16 2.256-.048 0-.144 0-.256-.016h-.256v-4.24h.48c.656 0 1.168.16 1.568.496.416.368.624.864.624 1.504zM137.248 5.276h-1.088v4.752h-4.192V5.276h-1.088V17.1h1.088v-5.696h4.192V17.1h1.088zM143.952 15.756h-3.616v-4.48h3.52V9.932h-3.52V6.62h3.616V5.276h-4.704V17.1h4.704zM150.16 5.276h-5.264V6.62h2.096V17.1h1.072V6.62h2.096zM163.744 11.18c0-1.488-.384-2.848-1.152-4.064-.88-1.392-2.032-2.08-3.44-2.08s-2.56.688-3.44 2.08c-.768 1.216-1.152 2.576-1.152 4.064s.384 2.848 1.152 4.064c.88 1.408 2.032 2.112 3.44 2.112s2.56-.704 3.44-2.112c.768-1.216 1.152-2.576 1.152-4.064zm-1.088 0a5.93 5.93 0 01-.864 3.136c-.688 1.104-1.568 1.648-2.64 1.648-1.088 0-1.968-.544-2.64-1.632-.576-.944-.864-1.984-.864-3.152 0-1.2.288-2.256.848-3.168.656-1.088 1.552-1.632 2.656-1.632s1.984.544 2.64 1.648c.576.944.864 1.984.864 3.152zM169.424 5.276h-4.256V17.1h1.12v-5.824h3.056V9.932h-3.056V6.62h3.136zM179.344 5.276h-5.264V6.62h2.096V17.1h1.072V6.62h2.096zM186.864 5.276h-1.088v4.752h-4.192V5.276h-1.088V17.1h1.088v-5.696h4.192V17.1h1.088zM193.568 15.756h-3.616v-4.48h3.52V9.932h-3.52V6.62h3.616V5.276h-4.704V17.1h4.704zM202.832 15.756h-2.656V5.276h-1.088V17.1h3.744zM212.56 11.18c0-1.488-.384-2.848-1.152-4.064-.88-1.392-2.032-2.08-3.44-2.08s-2.56.688-3.44 2.08c-.768 1.216-1.152 2.576-1.152 4.064s.384 2.848 1.152 4.064c.88 1.408 2.032 2.112 3.44 2.112s2.56-.704 3.44-2.112c.768-1.216 1.152-2.576 1.152-4.064zm-1.088 0a5.93 5.93 0 01-.864 3.136c-.688 1.104-1.568 1.648-2.64 1.648-1.088 0-1.968-.544-2.64-1.632-.576-.944-.864-1.984-.864-3.152 0-1.2.288-2.256.848-3.168.656-1.088 1.552-1.632 2.656-1.632s1.984.544 2.64 1.648c.576.944.864 1.984.864 3.152zM216.704 11.948c.688-.128 1.232-.56 1.616-1.28.32-.624.48-1.312.48-2.08 0-1.12-.336-2.016-1.024-2.672-.448-.432-1.184-.64-2.192-.64h-1.568V17.1h1.088v-4.992h.448l2.608 4.992h1.312zm1.072-3.264c0 .864-.24 1.456-.72 1.792-.4.272-1.056.416-1.952.416V6.588h.352c1.552 0 2.32.704 2.32 2.096zM227.392 11.036c0-1.648-.4-2.992-1.2-4.032-.88-1.152-2.128-1.728-3.728-1.728h-1.824V17.1h1.92c1.616 0 2.848-.64 3.712-1.904.752-1.104 1.12-2.48 1.12-4.16zm-1.104.128c0 1.328-.304 2.4-.928 3.216-.688.912-1.664 1.376-2.96 1.376h-.672V6.62h.544c1.328 0 2.352.432 3.056 1.296.64.8.96 1.888.96 3.248zM239.008 14.78c-.72.816-1.504 1.216-2.352 1.216-1.072 0-1.952-.576-2.608-1.744a6.355 6.355 0 01-.848-3.216c0-1.072.304-2.096.896-3.056.688-1.088 1.536-1.632 2.56-1.632.912 0 1.696.384 2.352 1.168V5.788a3.648 3.648 0 00-2.256-.752c-.56 0-1.2.192-1.904.592-.88.496-1.568 1.264-2.064 2.336a7.176 7.176 0 00-.672 3.072c0 1.2.224 2.304.672 3.312.512 1.136 1.248 1.968 2.192 2.512.576.336 1.152.496 1.744.496.784 0 1.552-.272 2.288-.832zM249.28 11.18c0-1.488-.384-2.848-1.152-4.064-.88-1.392-2.032-2.08-3.44-2.08s-2.56.688-3.44 2.08c-.768 1.216-1.152 2.576-1.152 4.064s.384 2.848 1.152 4.064c.88 1.408 2.032 2.112 3.44 2.112s2.56-.704 3.44-2.112c.768-1.216 1.152-2.576 1.152-4.064zm-1.088 0a5.93 5.93 0 01-.864 3.136c-.688 1.104-1.568 1.648-2.64 1.648-1.088 0-1.968-.544-2.64-1.632-.576-.944-.864-1.984-.864-3.152 0-1.2.288-2.256.848-3.168.656-1.088 1.552-1.632 2.656-1.632s1.984.544 2.64 1.648c.576.944.864 1.984.864 3.152zM257.888 4.764l-3.024 9.344-3.024-9.344-1.776 12.336h1.088l1.056-7.904 2.656 8.192 2.64-8.16 1.04 7.872h1.12zM268.208 4.764l-3.024 9.344-3.024-9.344-1.776 12.336h1.088l1.056-7.904 2.656 8.192 2.64-8.16 1.04 7.872h1.12zM274.624 4.764L270.432 17.1h1.184l1.008-2.96h4.016l1.008 2.96h1.168zm-1.536 8.016l1.536-4.768 1.568 4.768zM287.552 5.276h-1.104v8.768L279.856 4.7v12.4h1.072V8.268l6.624 9.328zM296.176 11.036c0-1.648-.4-2.992-1.2-4.032-.88-1.152-2.128-1.728-3.728-1.728h-1.824V17.1h1.92c1.616 0 2.848-.64 3.712-1.904.752-1.104 1.12-2.48 1.12-4.16zm-1.104.128c0 1.328-.304 2.4-.928 3.216-.688.912-1.664 1.376-2.96 1.376h-.672V6.62h.544c1.328 0 2.352.432 3.056 1.296.64.8.96 1.888.96 3.248zM302.688 13.692c0-1.2-.352-2.144-1.04-2.8-.08-.064-.72-.48-1.952-1.232-.688-.432-1.04-.992-1.04-1.648 0-.4.144-.784.432-1.12.288-.336.624-.512 1.024-.512.656 0 1.136.384 1.44 1.136l.848-.704c-.48-1.2-1.232-1.792-2.24-1.792-.752 0-1.392.304-1.888.928a3.138 3.138 0 00-.704 2.032c0 1.056.352 1.888 1.04 2.496.656.4 1.296.816 1.952 1.232.688.464 1.04 1.072 1.04 1.792 0 .624-.112 1.152-.336 1.6-.288.576-.72.864-1.28.864-.528 0-.96-.24-1.28-.736a2.672 2.672 0 01-.432-1.504l-1.088.32c.096.864.352 1.6.768 2.208.512.736 1.168 1.104 1.968 1.104.352 0 .704-.112 1.072-.32 1.136-.672 1.696-1.792 1.696-3.344zM314.336 5.276h-1.088v4.752h-4.192V5.276h-1.088V17.1h1.088v-5.696h4.192V17.1h1.088zM321.04 15.756h-3.616v-4.48h3.52V9.932h-3.52V6.62h3.616V5.276h-4.704V17.1h4.704zM326.048 4.764L321.856 17.1h1.184l1.008-2.96h4.016l1.008 2.96h1.168zm-1.536 8.016l1.536-4.768 1.568 4.768zM336.896 5.276l-2.624 8.736-2.608-8.736h-1.216l3.824 12.432 3.808-12.432zM343.968 15.756h-3.616v-4.48h3.52V9.932h-3.52V6.62h3.616V5.276h-4.704V17.1h4.704zM353.312 5.276h-1.104v8.768L345.616 4.7v12.4h1.072V8.268l6.624 9.328zM363.488 5.276h-5.264V6.62h2.096V17.1h1.072V6.62h2.096zM373.312 11.18c0-1.488-.384-2.848-1.152-4.064-.88-1.392-2.032-2.08-3.44-2.08s-2.56.688-3.44 2.08c-.768 1.216-1.152 2.576-1.152 4.064s.384 2.848 1.152 4.064c.88 1.408 2.032 2.112 3.44 2.112s2.56-.704 3.44-2.112c.768-1.216 1.152-2.576 1.152-4.064zm-1.088 0a5.93 5.93 0 01-.864 3.136c-.688 1.104-1.568 1.648-2.64 1.648-1.088 0-1.968-.544-2.64-1.632-.576-.944-.864-1.984-.864-3.152 0-1.2.288-2.256.848-3.168.656-1.088 1.552-1.632 2.656-1.632s1.984.544 2.64 1.648c.576.944.864 1.984.864 3.152zM387.104 11.18c0-1.488-.384-2.848-1.152-4.064-.88-1.392-2.032-2.08-3.44-2.08s-2.56.688-3.44 2.08c-.768 1.216-1.152 2.576-1.152 4.064s.384 2.848 1.152 4.064c.88 1.408 2.032 2.112 3.44 2.112s2.56-.704 3.44-2.112c.768-1.216 1.152-2.576 1.152-4.064zm-1.088 0a5.93 5.93 0 01-.864 3.136c-.688 1.104-1.568 1.648-2.64 1.648-1.088 0-1.968-.544-2.64-1.632-.576-.944-.864-1.984-.864-3.152 0-1.2.288-2.256.848-3.168.656-1.088 1.552-1.632 2.656-1.632s1.984.544 2.64 1.648c.576.944.864 1.984.864 3.152zM393.344 8.716c0-1.904-.624-2.992-1.872-3.28a6.563 6.563 0 00-1.536-.16h-1.376l-.032 11.824h1.12v-4.96c.896 0 1.504-.064 1.808-.176 1.264-.48 1.888-1.568 1.888-3.248zm-1.024-.128c0 1.504-.72 2.256-2.16 2.256-.048 0-.144 0-.256-.016h-.256v-4.24h.48c.656 0 1.168.16 1.568.496.416.368.624.864.624 1.504zM399.408 15.756h-3.616v-4.48h3.52V9.932h-3.52V6.62h3.616V5.276h-4.704V17.1h4.704zM408.752 5.276h-1.104v8.768L401.056 4.7v12.4h1.072V8.268l6.624 9.328zM420.32 14.46l1.072-1.68-.72-.976-1.008 1.632-1.856-3.024c1.072-.976 1.6-1.952 1.6-2.928 0-.656-.16-1.216-.496-1.68-.384-.512-.896-.768-1.52-.768-.672 0-1.184.272-1.552.816-.304.464-.448 1.056-.448 1.776 0 .768.32 1.632.944 2.592-.736.688-1.248 1.248-1.52 1.712-.368.624-.56 1.376-.56 2.224 0 .784.24 1.504.736 2.144.528.704 1.184 1.056 1.952 1.056.944 0 1.84-.624 2.656-1.856l.928 1.6h1.36zm-1.376 0c-.752 1.04-1.424 1.568-2 1.568-.464 0-.88-.24-1.216-.704a2.317 2.317 0 01-.448-1.376c0-.528.176-1.04.544-1.52.144-.208.528-.592 1.152-1.184zm-.56-7.04c0 .4-.128.768-.368 1.12l-.8.88c-.56-.832-.832-1.52-.832-2.064 0-.576.416-1.184.976-1.184.688 0 1.024.416 1.024 1.248zM427.728 5.276h-1.088V17.1h1.088zM434.24 5.276h-5.264V6.62h2.096V17.1h1.072V6.62h2.096zM441.936 11.948c.688-.128 1.232-.56 1.616-1.28.32-.624.48-1.312.48-2.08 0-1.12-.336-2.016-1.024-2.672-.448-.432-1.184-.64-2.192-.64h-1.568V17.1h1.088v-4.992h.448l2.608 4.992h1.312zm1.072-3.264c0 .864-.24 1.456-.72 1.792-.4.272-1.056.416-1.952.416V6.588h.352c1.552 0 2.32.704 2.32 2.096zM450.672 15.756h-3.616v-4.48h3.52V9.932h-3.52V6.62h3.616V5.276h-4.704V17.1h4.704zM456.176 15.756h-2.656V5.276h-1.088V17.1h3.744zM462.032 15.756h-3.616v-4.48h3.52V9.932h-3.52V6.62h3.616V5.276h-4.704V17.1h4.704zM467.04 4.764L462.848 17.1h1.184l1.008-2.96h4.016l1.008 2.96h1.168zm-1.536 8.016l1.536-4.768 1.568 4.768zM477.424 13.692c0-1.2-.352-2.144-1.04-2.8-.08-.064-.72-.48-1.952-1.232-.688-.432-1.04-.992-1.04-1.648 0-.4.144-.784.432-1.12.288-.336.624-.512 1.024-.512.656 0 1.136.384 1.44 1.136l.848-.704c-.48-1.2-1.232-1.792-2.24-1.792-.752 0-1.392.304-1.888.928a3.138 3.138 0 00-.704 2.032c0 1.056.352 1.888 1.04 2.496.656.4 1.296.816 1.952 1.232.688.464 1.04 1.072 1.04 1.792 0 .624-.112 1.152-.336 1.6-.288.576-.72.864-1.28.864-.528 0-.96-.24-1.28-.736a2.672 2.672 0 01-.432-1.504l-1.088.32c.096.864.352 1.6.768 2.208.512.736 1.168 1.104 1.968 1.104.352 0 .704-.112 1.072-.32 1.136-.672 1.696-1.792 1.696-3.344zM483.744 15.756h-3.616v-4.48h3.52V9.932h-3.52V6.62h3.616V5.276h-4.704V17.1h4.704zM490.544 13.692c0-1.2-.352-2.144-1.04-2.8-.08-.064-.72-.48-1.952-1.232-.688-.432-1.04-.992-1.04-1.648 0-.4.144-.784.432-1.12.288-.336.624-.512 1.024-.512.656 0 1.136.384 1.44 1.136l.848-.704c-.48-1.2-1.232-1.792-2.24-1.792-.752 0-1.392.304-1.888.928a3.138 3.138 0 00-.704 2.032c0 1.056.352 1.888 1.04 2.496.656.4 1.296.816 1.952 1.232.688.464 1.04 1.072 1.04 1.792 0 .624-.112 1.152-.336 1.6-.288.576-.72.864-1.28.864-.528 0-.96-.24-1.28-.736a2.672 2.672 0 01-.432-1.504l-1.088.32c.096.864.352 1.6.768 2.208.512.736 1.168 1.104 1.968 1.104.352 0 .704-.112 1.072-.32 1.136-.672 1.696-1.792 1.696-3.344zM496.96 5.276h-1.088V17.1h1.088zM506.608 5.276h-1.104v8.768L498.912 4.7v12.4h1.072V8.268l6.624 9.328zM513.616 13.692c0-1.2-.352-2.144-1.04-2.8-.08-.064-.72-.48-1.952-1.232-.688-.432-1.04-.992-1.04-1.648 0-.4.144-.784.432-1.12.288-.336.624-.512 1.024-.512.656 0 1.136.384 1.44 1.136l.848-.704c-.48-1.2-1.232-1.792-2.24-1.792-.752 0-1.392.304-1.888.928a3.138 3.138 0 00-.704 2.032c0 1.056.352 1.888 1.04 2.496.656.4 1.296.816 1.952 1.232.688.464 1.04 1.072 1.04 1.792 0 .624-.112 1.152-.336 1.6-.288.576-.72.864-1.28.864-.528 0-.96-.24-1.28-.736a2.672 2.672 0 01-.432-1.504l-1.088.32c.096.864.352 1.6.768 2.208.512.736 1.168 1.104 1.968 1.104.352 0 .704-.112 1.072-.32 1.136-.672 1.696-1.792 1.696-3.344zM519.68 5.276h-5.264V6.62h2.096V17.1h1.072V6.62h2.096zM524.176 4.764L519.984 17.1h1.184l1.008-2.96h4.016l1.008 2.96h1.168zm-1.536 8.016l1.536-4.768 1.568 4.768zM537.104 5.276H536v8.768L529.408 4.7v12.4h1.072V8.268l6.624 9.328zM543.52 5.276h-5.264V6.62h2.096V17.1h1.072V6.62h2.096zM551.216 11.948c.688-.128 1.232-.56 1.616-1.28.32-.624.48-1.312.48-2.08 0-1.12-.336-2.016-1.024-2.672-.448-.432-1.184-.64-2.192-.64h-1.568V17.1h1.088v-4.992h.448l2.608 4.992h1.312zm1.072-3.264c0 .864-.24 1.456-.72 1.792-.4.272-1.056.416-1.952.416V6.588h.352c1.552 0 2.32.704 2.32 2.096zM558.496 4.764L554.304 17.1h1.184l1.008-2.96h4.016l1.008 2.96h1.168zm-1.536 8.016l1.536-4.768 1.568 4.768zM564.88 5.276h-1.088V17.1h1.088zM574.528 5.276h-1.104v8.768L566.832 4.7v12.4h1.072V8.268l6.624 9.328z" stroke-width=".016"/></g></svg>