<svg width="590" height="47" viewBox="0 0 590 47" xmlns="http://www.w3.org/2000/svg"><g fill="#fff" stroke="#fff"><path d="M19.408 5.276h-5.264V6.62h2.096V17.1h1.072V6.62h2.096zM26.828 5.276H25.74v4.752h-4.192V5.276H20.46V17.1h1.088v-5.696h4.192V17.1h1.088zM33.432 15.756h-3.616v-4.48h3.52V9.932h-3.52V6.62h3.616V5.276h-4.704V17.1h4.704zM45.904 4.764l-3.024 9.344-3.024-9.344L38.08 17.1h1.088l1.056-7.904 2.656 8.192 2.64-8.16 1.04 7.872h1.12zM50.012 5.276h-1.088V17.1h1.088zM59.976 11.116h-3.488v1.36h2.304c0 .864-.288 1.648-.88 2.368-.624.768-1.344 1.152-2.176 1.152-.48 0-.976-.208-1.488-.608-.592-.464-1.04-1.12-1.36-1.968a6.63 6.63 0 01-.432-2.384c0-1.104.288-2.112.864-3.056.672-1.072 1.52-1.6 2.56-1.6 1.168 0 2.128.64 2.848 1.92l.8-.992c-.496-.784-1.008-1.36-1.52-1.696-.592-.384-1.328-.576-2.192-.576-1.328 0-2.416.704-3.296 2.128-.768 1.232-1.152 2.544-1.152 3.952 0 1.536.368 2.912 1.12 4.128.88 1.424 2.032 2.128 3.472 2.128.464 0 .96-.144 1.488-.448.864-.496 1.52-1.264 1.968-2.288.368-.88.56-1.888.56-2.992zM67.62 5.276h-1.088v4.752H62.34V5.276h-1.088V17.1h1.088v-5.696h4.192V17.1h1.088zM73.968 5.276h-5.264V6.62H70.8V17.1h1.072V6.62h2.096zM76.156 5.276h-1.088V17.1h1.088zM82.824 15.756h-3.616v-4.48h3.52V9.932h-3.52V6.62h3.616V5.276H78.12V17.1h4.704zM89.524 13.692c0-1.2-.352-2.144-1.04-2.8-.08-.064-.72-.48-1.952-1.232-.688-.432-1.04-.992-1.04-1.648 0-.4.144-.784.432-1.12.288-.336.624-.512 1.024-.512.656 0 1.136.384 1.44 1.136l.848-.704c-.48-1.2-1.232-1.792-2.24-1.792-.752 0-1.392.304-1.888.928a3.138 3.138 0 00-.704 2.032c0 1.056.352 1.888 1.04 2.496.656.4 1.296.816 1.952 1.232.688.464 1.04 1.072 1.04 1.792 0 .624-.112 1.152-.336 1.6-.288.576-.72.864-1.28.864-.528 0-.96-.24-1.28-.736a2.672 2.672 0 01-.432-1.504l-1.088.32c.096.864.352 1.6.768 2.208.512.736 1.168 1.104 1.968 1.104.352 0 .704-.112 1.072-.32 1.136-.672 1.696-1.792 1.696-3.344zM95.488 5.276h-5.264V6.62h2.096V17.1h1.072V6.62h2.096zM105.08 8.716c0-1.904-.624-2.992-1.872-3.28a6.563 6.563 0 00-1.536-.16h-1.376l-.032 11.824h1.12v-4.96c.896 0 1.504-.064 1.808-.176 1.264-.48 1.888-1.568 1.888-3.248zm-1.024-.128c0 1.504-.72 2.256-2.16 2.256-.048 0-.144 0-.256-.016h-.256v-4.24h.48c.656 0 1.168.16 1.568.496.416.368.624.864.624 1.504zM109.028 11.948c.688-.128 1.232-.56 1.616-1.28.32-.624.48-1.312.48-2.08 0-1.12-.336-2.016-1.024-2.672-.448-.432-1.184-.64-2.192-.64h-1.568V17.1h1.088v-4.992h.448l2.608 4.992h1.312zm1.072-3.264c0 .864-.24 1.456-.72 1.792-.4.272-1.056.416-1.952.416V6.588h.352c1.552 0 2.32.704 2.32 2.096zM121.536 11.18c0-1.488-.384-2.848-1.152-4.064-.88-1.392-2.032-2.08-3.44-2.08s-2.56.688-3.44 2.08c-.768 1.216-1.152 2.576-1.152 4.064s.384 2.848 1.152 4.064c.88 1.408 2.032 2.112 3.44 2.112s2.56-.704 3.44-2.112c.768-1.216 1.152-2.576 1.152-4.064zm-1.088 0a5.93 5.93 0 01-.864 3.136c-.688 1.104-1.568 1.648-2.64 1.648-1.088 0-1.968-.544-2.64-1.632-.576-.944-.864-1.984-.864-3.152 0-1.2.288-2.256.848-3.168.656-1.088 1.552-1.632 2.656-1.632s1.984.544 2.64 1.648c.576.944.864 1.984.864 3.152zM127.676 8.716c0-1.904-.624-2.992-1.872-3.28a6.563 6.563 0 00-1.536-.16h-1.376L122.86 17.1h1.12v-4.96c.896 0 1.504-.064 1.808-.176 1.264-.48 1.888-1.568 1.888-3.248zm-1.024-.128c0 1.504-.72 2.256-2.16 2.256-.048 0-.144 0-.256-.016h-.256v-4.24h.48c.656 0 1.168.16 1.568.496.416.368.624.864.624 1.504zM135.208 5.276h-1.088v4.752h-4.192V5.276h-1.088V17.1h1.088v-5.696h4.192V17.1h1.088zM141.812 15.756h-3.616v-4.48h3.52V9.932h-3.52V6.62h3.616V5.276h-4.704V17.1h4.704zM147.92 5.276h-5.264V6.62h2.096V17.1h1.072V6.62h2.096zM161.304 11.18c0-1.488-.384-2.848-1.152-4.064-.88-1.392-2.032-2.08-3.44-2.08s-2.56.688-3.44 2.08c-.768 1.216-1.152 2.576-1.152 4.064s.384 2.848 1.152 4.064c.88 1.408 2.032 2.112 3.44 2.112s2.56-.704 3.44-2.112c.768-1.216 1.152-2.576 1.152-4.064zm-1.088 0a5.93 5.93 0 01-.864 3.136c-.688 1.104-1.568 1.648-2.64 1.648-1.088 0-1.968-.544-2.64-1.632-.576-.944-.864-1.984-.864-3.152 0-1.2.288-2.256.848-3.168.656-1.088 1.552-1.632 2.656-1.632s1.984.544 2.64 1.648c.576.944.864 1.984.864 3.152zM166.884 5.276h-4.256V17.1h1.12v-5.824h3.056V9.932h-3.056V6.62h3.136zM176.604 5.276h-5.264V6.62h2.096V17.1h1.072V6.62h2.096zM184.024 5.276h-1.088v4.752h-4.192V5.276h-1.088V17.1h1.088v-5.696h4.192V17.1h1.088zM190.628 15.756h-3.616v-4.48h3.52V9.932h-3.52V6.62h3.616V5.276h-4.704V17.1h4.704zM199.692 15.756h-2.656V5.276h-1.088V17.1h3.744zM209.32 11.18c0-1.488-.384-2.848-1.152-4.064-.88-1.392-2.032-2.08-3.44-2.08s-2.56.688-3.44 2.08c-.768 1.216-1.152 2.576-1.152 4.064s.384 2.848 1.152 4.064c.88 1.408 2.032 2.112 3.44 2.112s2.56-.704 3.44-2.112c.768-1.216 1.152-2.576 1.152-4.064zm-1.088 0a5.93 5.93 0 01-.864 3.136c-.688 1.104-1.568 1.648-2.64 1.648-1.088 0-1.968-.544-2.64-1.632-.576-.944-.864-1.984-.864-3.152 0-1.2.288-2.256.848-3.168.656-1.088 1.552-1.632 2.656-1.632s1.984.544 2.64 1.648c.576.944.864 1.984.864 3.152zM213.364 11.948c.688-.128 1.232-.56 1.616-1.28.32-.624.48-1.312.48-2.08 0-1.12-.336-2.016-1.024-2.672-.448-.432-1.184-.64-2.192-.64h-1.568V17.1h1.088v-4.992h.448l2.608 4.992h1.312zm1.072-3.264c0 .864-.24 1.456-.72 1.792-.4.272-1.056.416-1.952.416V6.588h.352c1.552 0 2.32.704 2.32 2.096zM223.952 11.036c0-1.648-.4-2.992-1.2-4.032-.88-1.152-2.128-1.728-3.728-1.728H217.2V17.1h1.92c1.616 0 2.848-.64 3.712-1.904.752-1.104 1.12-2.48 1.12-4.16zm-1.104.128c0 1.328-.304 2.4-.928 3.216-.688.912-1.664 1.376-2.96 1.376h-.672V6.62h.544c1.328 0 2.352.432 3.056 1.296.64.8.96 1.888.96 3.248zM235.368 14.78c-.72.816-1.504 1.216-2.352 1.216-1.072 0-1.952-.576-2.608-1.744a6.355 6.355 0 01-.848-3.216c0-1.072.304-2.096.896-3.056.688-1.088 1.536-1.632 2.56-1.632.912 0 1.696.384 2.352 1.168V5.788a3.648 3.648 0 00-2.256-.752c-.56 0-1.2.192-1.904.592-.88.496-1.568 1.264-2.064 2.336a7.176 7.176 0 00-.672 3.072c0 1.2.224 2.304.672 3.312.512 1.136 1.248 1.968 2.192 2.512.576.336 1.152.496 1.744.496.784 0 1.552-.272 2.288-.832zM240.212 4.764L236.02 17.1h1.184l1.008-2.96h4.016l1.008 2.96h1.168zm-1.536 8.016l1.536-4.768 1.568 4.768zM249.2 15.756h-2.656V5.276h-1.088V17.1h3.744zM253.996 15.756h-2.656V5.276h-1.088V17.1h3.744zM260.088 13.692c0-1.2-.352-2.144-1.04-2.8-.08-.064-.72-.48-1.952-1.232-.688-.432-1.04-.992-1.04-1.648 0-.4.144-.784.432-1.12.288-.336.624-.512 1.024-.512.656 0 1.136.384 1.44 1.136l.848-.704c-.48-1.2-1.232-1.792-2.24-1.792-.752 0-1.392.304-1.888.928a3.138 3.138 0 00-.704 2.032c0 1.056.352 1.888 1.04 2.496.656.4 1.296.816 1.952 1.232.688.464 1.04 1.072 1.04 1.792 0 .624-.112 1.152-.336 1.6-.288.576-.72.864-1.28.864-.528 0-.96-.24-1.28-.736a2.672 2.672 0 01-.432-1.504l-1.088.32c.096.864.352 1.6.768 2.208.512.736 1.168 1.104 1.968 1.104.352 0 .704-.112 1.072-.32 1.136-.672 1.696-1.792 1.696-3.344zM271.92 11.036c0-1.648-.4-2.992-1.2-4.032-.88-1.152-2.128-1.728-3.728-1.728h-1.824V17.1h1.92c1.616 0 2.848-.64 3.712-1.904.752-1.104 1.12-2.48 1.12-4.16zm-1.104.128c0 1.328-.304 2.4-.928 3.216-.688.912-1.664 1.376-2.96 1.376h-.672V6.62h.544c1.328 0 2.352.432 3.056 1.296.64.8.96 1.888.96 3.248zM281.868 11.18c0-1.488-.384-2.848-1.152-4.064-.88-1.392-2.032-2.08-3.44-2.08s-2.56.688-3.44 2.08c-.768 1.216-1.152 2.576-1.152 4.064s.384 2.848 1.152 4.064c.88 1.408 2.032 2.112 3.44 2.112s2.56-.704 3.44-2.112c.768-1.216 1.152-2.576 1.152-4.064zm-1.088 0a5.93 5.93 0 01-.864 3.136c-.688 1.104-1.568 1.648-2.64 1.648-1.088 0-1.968-.544-2.64-1.632-.576-.944-.864-1.984-.864-3.152 0-1.2.288-2.256.848-3.168.656-1.088 1.552-1.632 2.656-1.632s1.984.544 2.64 1.648c.576.944.864 1.984.864 3.152zM293.304 5.276l-2.448 8.448-2.496-8.704-2.48 8.704-2.464-8.448h-1.184l3.648 12.32 2.48-8.704 2.496 8.672 3.648-12.288zM303.076 5.276h-1.104v8.768L295.38 4.7v12.4h1.072V8.268l6.624 9.328zM313.052 5.276h-5.264V6.62h2.096V17.1h1.072V6.62h2.096zM320.472 5.276h-1.088v4.752h-4.192V5.276h-1.088V17.1h1.088v-5.696h4.192V17.1h1.088zM327.076 15.756h-3.616v-4.48h3.52V9.932h-3.52V6.62h3.616V5.276h-4.704V17.1h4.704zM338.78 14.78c-.72.816-1.504 1.216-2.352 1.216-1.072 0-1.952-.576-2.608-1.744a6.355 6.355 0 01-.848-3.216c0-1.072.304-2.096.896-3.056.688-1.088 1.536-1.632 2.56-1.632.912 0 1.696.384 2.352 1.168V5.788a3.648 3.648 0 00-2.256-.752c-.56 0-1.2.192-1.904.592-.88.496-1.568 1.264-2.064 2.336a7.176 7.176 0 00-.672 3.072c0 1.2.224 2.304.672 3.312.512 1.136 1.248 1.968 2.192 2.512.576.336 1.152.496 1.744.496.784 0 1.552-.272 2.288-.832zM344.12 15.756h-2.656V5.276h-1.088V17.1h3.744zM353.748 11.18c0-1.488-.384-2.848-1.152-4.064-.88-1.392-2.032-2.08-3.44-2.08s-2.56.688-3.44 2.08c-.768 1.216-1.152 2.576-1.152 4.064s.384 2.848 1.152 4.064c.88 1.408 2.032 2.112 3.44 2.112s2.56-.704 3.44-2.112c.768-1.216 1.152-2.576 1.152-4.064zm-1.088 0a5.93 5.93 0 01-.864 3.136c-.688 1.104-1.568 1.648-2.64 1.648-1.088 0-1.968-.544-2.64-1.632-.576-.944-.864-1.984-.864-3.152 0-1.2.288-2.256.848-3.168.656-1.088 1.552-1.632 2.656-1.632s1.984.544 2.64 1.648c.576.944.864 1.984.864 3.152zM361.376 5.276h-1.088v7.104c0 2.384-.72 3.584-2.144 3.584-.784 0-1.36-.4-1.712-1.2-.272-.592-.4-1.344-.4-2.256V5.276h-1.088v7.584c0 1.12.256 2.112.752 2.96.592 1.024 1.408 1.536 2.448 1.536 1.088 0 1.92-.512 2.512-1.552.48-.848.72-1.856.72-3.024zM369.868 11.036c0-1.648-.4-2.992-1.2-4.032-.88-1.152-2.128-1.728-3.728-1.728h-1.824V17.1h1.92c1.616 0 2.848-.64 3.712-1.904.752-1.104 1.12-2.48 1.12-4.16zm-1.104.128c0 1.328-.304 2.4-.928 3.216-.688.912-1.664 1.376-2.96 1.376h-.672V6.62h.544c1.328 0 2.352.432 3.056 1.296.64.8.96 1.888.96 3.248zM383.476 11.18c0-1.488-.384-2.848-1.152-4.064-.88-1.392-2.032-2.08-3.44-2.08s-2.56.688-3.44 2.08c-.768 1.216-1.152 2.576-1.152 4.064s.384 2.848 1.152 4.064c.88 1.408 2.032 2.112 3.44 2.112s2.56-.704 3.44-2.112c.768-1.216 1.152-2.576 1.152-4.064zm-1.088 0a5.93 5.93 0 01-.864 3.136c-.688 1.104-1.568 1.648-2.64 1.648-1.088 0-1.968-.544-2.64-1.632-.576-.944-.864-1.984-.864-3.152 0-1.2.288-2.256.848-3.168.656-1.088 1.552-1.632 2.656-1.632s1.984.544 2.64 1.648c.576.944.864 1.984.864 3.152zM389.056 5.276H384.8V17.1h1.12v-5.824h3.056V9.932h-3.056V6.62h3.136zM402.328 11.116h-3.488v1.36h2.304c0 .864-.288 1.648-.88 2.368-.624.768-1.344 1.152-2.176 1.152-.48 0-.976-.208-1.488-.608-.592-.464-1.04-1.12-1.36-1.968a6.63 6.63 0 01-.432-2.384c0-1.104.288-2.112.864-3.056.672-1.072 1.52-1.6 2.56-1.6 1.168 0 2.128.64 2.848 1.92l.8-.992c-.496-.784-1.008-1.36-1.52-1.696-.592-.384-1.328-.576-2.192-.576-1.328 0-2.416.704-3.296 2.128-.768 1.232-1.152 2.544-1.152 3.952 0 1.536.368 2.912 1.12 4.128.88 1.424 2.032 2.128 3.472 2.128.464 0 .96-.144 1.488-.448.864-.496 1.52-1.264 1.968-2.288.368-.88.56-1.888.56-2.992zM412.276 11.18c0-1.488-.384-2.848-1.152-4.064-.88-1.392-2.032-2.08-3.44-2.08s-2.56.688-3.44 2.08c-.768 1.216-1.152 2.576-1.152 4.064s.384 2.848 1.152 4.064c.88 1.408 2.032 2.112 3.44 2.112s2.56-.704 3.44-2.112c.768-1.216 1.152-2.576 1.152-4.064zm-1.088 0a5.93 5.93 0 01-.864 3.136c-.688 1.104-1.568 1.648-2.64 1.648-1.088 0-1.968-.544-2.64-1.632-.576-.944-.864-1.984-.864-3.152 0-1.2.288-2.256.848-3.168.656-1.088 1.552-1.632 2.656-1.632s1.984.544 2.64 1.648c.576.944.864 1.984.864 3.152zM420.288 11.036c0-1.648-.4-2.992-1.2-4.032-.88-1.152-2.128-1.728-3.728-1.728h-1.824V17.1h1.92c1.616 0 2.848-.64 3.712-1.904.752-1.104 1.12-2.48 1.12-4.16zm-1.104.128c0 1.328-.304 2.4-.928 3.216-.688.912-1.664 1.376-2.96 1.376h-.672V6.62h.544c1.328 0 2.352.432 3.056 1.296.64.8.96 1.888.96 3.248zM429.768 5.276h-5.264V6.62h2.096V17.1h1.072V6.62h2.096zM437.188 5.276H436.1v4.752h-4.192V5.276h-1.088V17.1h1.088v-5.696h4.192V17.1h1.088zM443.792 15.756h-3.616v-4.48h3.52V9.932h-3.52V6.62h3.616V5.276h-4.704V17.1h4.704zM453.336 5.276h-4.256V17.1h1.12v-5.824h3.056V9.932H450.2V6.62h3.136zM458.196 4.764L454.004 17.1h1.184l1.008-2.96h4.016l1.008 2.96h1.168zm-1.536 8.016l1.536-4.768 1.568 4.768zM467.888 5.276h-5.264V6.62h2.096V17.1h1.072V6.62h2.096zM475.308 5.276h-1.088v4.752h-4.192V5.276h-1.088V17.1h1.088v-5.696h4.192V17.1h1.088zM481.912 15.756h-3.616v-4.48h3.52V9.932h-3.52V6.62h3.616V5.276h-4.704V17.1h4.704zM486.26 11.948c.688-.128 1.232-.56 1.616-1.28.32-.624.48-1.312.48-2.08 0-1.12-.336-2.016-1.024-2.672-.448-.432-1.184-.64-2.192-.64h-1.568V17.1h1.088v-4.992h.448l2.608 4.992h1.312zm1.072-3.264c0 .864-.24 1.456-.72 1.792-.4.272-1.056.416-1.952.416V6.588h.352c1.552 0 2.32.704 2.32 2.096zM498.076 5.276h-4.256V17.1h1.12v-5.824h3.056V9.932h-3.056V6.62h3.136zM502.376 11.948c.688-.128 1.232-.56 1.616-1.28.32-.624.48-1.312.48-2.08 0-1.12-.336-2.016-1.024-2.672-.448-.432-1.184-.64-2.192-.64h-1.568V17.1h1.088v-4.992h.448l2.608 4.992h1.312zm1.072-3.264c0 .864-.24 1.456-.72 1.792-.4.272-1.056.416-1.952.416V6.588h.352c1.552 0 2.32.704 2.32 2.096zM514.884 11.18c0-1.488-.384-2.848-1.152-4.064-.88-1.392-2.032-2.08-3.44-2.08s-2.56.688-3.44 2.08c-.768 1.216-1.152 2.576-1.152 4.064s.384 2.848 1.152 4.064c.88 1.408 2.032 2.112 3.44 2.112s2.56-.704 3.44-2.112c.768-1.216 1.152-2.576 1.152-4.064zm-1.088 0a5.93 5.93 0 01-.864 3.136c-.688 1.104-1.568 1.648-2.64 1.648-1.088 0-1.968-.544-2.64-1.632-.576-.944-.864-1.984-.864-3.152 0-1.2.288-2.256.848-3.168.656-1.088 1.552-1.632 2.656-1.632s1.984.544 2.64 1.648c.576.944.864 1.984.864 3.152zM523.392 4.764l-3.024 9.344-3.024-9.344-1.776 12.336h1.088l1.056-7.904 2.656 8.192 2.64-8.16 1.04 7.872h1.12zM536.392 5.276h-1.088v4.752h-4.192V5.276h-1.088V17.1h1.088v-5.696h4.192V17.1h1.088zM542.996 15.756h-3.616v-4.48h3.52V9.932h-3.52V6.62h3.616V5.276h-4.704V17.1h4.704zM547.904 4.764L543.712 17.1h1.184l1.008-2.96h4.016l1.008 2.96h1.168zm-1.536 8.016l1.536-4.768 1.568 4.768zM558.652 5.276l-2.624 8.736-2.608-8.736h-1.216l3.824 12.432 3.808-12.432zM565.624 15.756h-3.616v-4.48h3.52V9.932h-3.52V6.62h3.616V5.276h-4.704V17.1h4.704zM574.868 5.276h-1.104v8.768L567.172 4.7v12.4h1.072V8.268l6.624 9.328z" stroke-width=".016"/></g></svg>